<mxfile host="app.diagrams.net" agent="Mozilla/5.0 (Windows NT 10.0; Win64; x64) AppleWebKit/537.36 (KHTML, like Gecko) Chrome/139.0.0.0 Safari/537.36 Edg/139.0.0.0" version="28.1.1">
  <diagram name="Page-1" id="_LW3okF-Hu8bM-zUy-sx">
    <mxGraphModel dx="1418" dy="794" grid="1" gridSize="10" guides="1" tooltips="1" connect="1" arrows="1" fold="1" page="1" pageScale="1" pageWidth="850" pageHeight="1100" math="0" shadow="0">
      <root>
        <mxCell id="0" />
        <mxCell id="1" parent="0" />
        <mxCell id="q5uCnVJf6JsMDZms-lw6-22" style="edgeStyle=orthogonalEdgeStyle;rounded=0;orthogonalLoop=1;jettySize=auto;html=1;entryX=0.5;entryY=0;entryDx=0;entryDy=0;" edge="1" parent="1" source="q5uCnVJf6JsMDZms-lw6-1" target="q5uCnVJf6JsMDZms-lw6-9">
          <mxGeometry relative="1" as="geometry" />
        </mxCell>
        <mxCell id="q5uCnVJf6JsMDZms-lw6-23" style="edgeStyle=orthogonalEdgeStyle;rounded=0;orthogonalLoop=1;jettySize=auto;html=1;" edge="1" parent="1" source="q5uCnVJf6JsMDZms-lw6-1" target="q5uCnVJf6JsMDZms-lw6-14">
          <mxGeometry relative="1" as="geometry" />
        </mxCell>
        <mxCell id="q5uCnVJf6JsMDZms-lw6-24" style="edgeStyle=orthogonalEdgeStyle;rounded=0;orthogonalLoop=1;jettySize=auto;html=1;entryX=0.5;entryY=0;entryDx=0;entryDy=0;" edge="1" parent="1" source="q5uCnVJf6JsMDZms-lw6-1" target="q5uCnVJf6JsMDZms-lw6-17">
          <mxGeometry relative="1" as="geometry" />
        </mxCell>
        <mxCell id="q5uCnVJf6JsMDZms-lw6-1" value="&lt;h2&gt;FD Banco Social&lt;/h2&gt;" style="rounded=0;whiteSpace=wrap;html=1;" vertex="1" parent="1">
          <mxGeometry x="365" y="40" width="120" height="60" as="geometry" />
        </mxCell>
        <mxCell id="q5uCnVJf6JsMDZms-lw6-11" value="" style="group" vertex="1" connectable="0" parent="1">
          <mxGeometry x="70" y="200" width="200" height="200" as="geometry" />
        </mxCell>
        <mxCell id="q5uCnVJf6JsMDZms-lw6-2" value="&lt;span style=&quot;font-size: 12pt; line-height: 115%; font-family: Aptos, sans-serif;&quot; lang=&quot;PT-BR&quot;&gt;Core Banking (Accounts &amp;amp; Movements)&lt;/span&gt;" style="rounded=0;whiteSpace=wrap;html=1;" vertex="1" parent="q5uCnVJf6JsMDZms-lw6-11">
          <mxGeometry x="40" y="40" width="120" height="60" as="geometry" />
        </mxCell>
        <mxCell id="q5uCnVJf6JsMDZms-lw6-9" value="&lt;b&gt;&lt;span style=&quot;font-size:12.0pt;&lt;br/&gt;line-height:115%;font-family:&amp;quot;Aptos&amp;quot;,sans-serif;mso-ascii-theme-font:minor-latin;&lt;br/&gt;mso-fareast-font-family:Aptos;mso-fareast-theme-font:minor-latin;mso-hansi-theme-font:&lt;br/&gt;minor-latin;mso-bidi-font-family:&amp;quot;Times New Roman&amp;quot;;mso-bidi-theme-font:minor-bidi;&lt;br/&gt;mso-ansi-language:PT-BR;mso-fareast-language:EN-US;mso-bidi-language:AR-SA&quot; lang=&quot;PT-BR&quot;&gt;Core&amp;nbsp;&lt;/span&gt;&lt;/b&gt;" style="swimlane;whiteSpace=wrap;html=1;" vertex="1" parent="q5uCnVJf6JsMDZms-lw6-11">
          <mxGeometry width="200" height="200" as="geometry" />
        </mxCell>
        <mxCell id="q5uCnVJf6JsMDZms-lw6-10" value="&lt;span style=&quot;font-size: 12pt; line-height: 115%; font-family: Aptos, sans-serif;&quot; lang=&quot;PT-BR&quot;&gt;Community Governance&lt;/span&gt;" style="rounded=0;whiteSpace=wrap;html=1;" vertex="1" parent="q5uCnVJf6JsMDZms-lw6-11">
          <mxGeometry x="40" y="130" width="120" height="60" as="geometry" />
        </mxCell>
        <mxCell id="q5uCnVJf6JsMDZms-lw6-14" value="&lt;b&gt;&lt;span style=&quot;font-size:12.0pt;&lt;br/&gt;line-height:115%;font-family:&amp;quot;Aptos&amp;quot;,sans-serif;mso-ascii-theme-font:minor-latin;&lt;br/&gt;mso-fareast-font-family:Aptos;mso-fareast-theme-font:minor-latin;mso-hansi-theme-font:&lt;br/&gt;minor-latin;mso-bidi-font-family:&amp;quot;Times New Roman&amp;quot;;mso-bidi-theme-font:minor-bidi;&lt;br/&gt;mso-ansi-language:PT-BR;mso-fareast-language:EN-US;mso-bidi-language:AR-SA&quot; lang=&quot;PT-BR&quot;&gt;Supporting&amp;nbsp;&lt;/span&gt;&lt;/b&gt;" style="swimlane;whiteSpace=wrap;html=1;" vertex="1" parent="1">
          <mxGeometry x="325" y="200" width="200" height="340" as="geometry" />
        </mxCell>
        <mxCell id="q5uCnVJf6JsMDZms-lw6-12" value="" style="group" vertex="1" connectable="0" parent="q5uCnVJf6JsMDZms-lw6-14">
          <mxGeometry y="20" width="200" height="200" as="geometry" />
        </mxCell>
        <mxCell id="q5uCnVJf6JsMDZms-lw6-13" value="&lt;span style=&quot;font-size: 12pt; line-height: 115%; font-family: Aptos, sans-serif;&quot; lang=&quot;PT-BR&quot;&gt;Reporting&lt;/span&gt;" style="rounded=0;whiteSpace=wrap;html=1;" vertex="1" parent="q5uCnVJf6JsMDZms-lw6-12">
          <mxGeometry x="40" y="40" width="120" height="60" as="geometry" />
        </mxCell>
        <mxCell id="q5uCnVJf6JsMDZms-lw6-15" value="&lt;span style=&quot;font-size: 12pt; line-height: 115%; font-family: Aptos, sans-serif;&quot; lang=&quot;PT-BR&quot;&gt;Compliance&lt;br/&gt;&amp;amp; RegulatÃ³rio&lt;/span&gt;" style="rounded=0;whiteSpace=wrap;html=1;" vertex="1" parent="q5uCnVJf6JsMDZms-lw6-12">
          <mxGeometry x="40" y="130" width="120" height="60" as="geometry" />
        </mxCell>
        <mxCell id="q5uCnVJf6JsMDZms-lw6-16" value="&lt;span style=&quot;font-size: 12pt; line-height: 115%; font-family: Aptos, sans-serif;&quot; lang=&quot;PT-BR&quot;&gt;Administration&lt;br/&gt;(Backoffice)&lt;/span&gt;" style="rounded=0;whiteSpace=wrap;html=1;" vertex="1" parent="q5uCnVJf6JsMDZms-lw6-14">
          <mxGeometry x="40" y="240" width="120" height="60" as="geometry" />
        </mxCell>
        <mxCell id="q5uCnVJf6JsMDZms-lw6-17" value="&lt;b&gt;&lt;span style=&quot;font-size:12.0pt;&lt;br/&gt;line-height:115%;font-family:&amp;quot;Aptos&amp;quot;,sans-serif;mso-ascii-theme-font:minor-latin;&lt;br/&gt;mso-fareast-font-family:Aptos;mso-fareast-theme-font:minor-latin;mso-hansi-theme-font:&lt;br/&gt;minor-latin;mso-bidi-font-family:&amp;quot;Times New Roman&amp;quot;;mso-bidi-theme-font:minor-bidi;&lt;br/&gt;mso-ansi-language:PT-BR;mso-fareast-language:EN-US;mso-bidi-language:AR-SA&quot; lang=&quot;PT-BR&quot;&gt;Generic&amp;nbsp;&lt;/span&gt;&lt;/b&gt;" style="swimlane;whiteSpace=wrap;html=1;startSize=23;" vertex="1" parent="1">
          <mxGeometry x="590" y="200" width="200" height="340" as="geometry" />
        </mxCell>
        <mxCell id="q5uCnVJf6JsMDZms-lw6-18" value="" style="group" vertex="1" connectable="0" parent="q5uCnVJf6JsMDZms-lw6-17">
          <mxGeometry y="20" width="200" height="200" as="geometry" />
        </mxCell>
        <mxCell id="q5uCnVJf6JsMDZms-lw6-19" value="&lt;span style=&quot;font-size: 12pt; line-height: 115%; font-family: Aptos, sans-serif;&quot; lang=&quot;PT-BR&quot;&gt;Identity&lt;br/&gt;&amp;amp; Authentication&lt;/span&gt;" style="rounded=0;whiteSpace=wrap;html=1;" vertex="1" parent="q5uCnVJf6JsMDZms-lw6-18">
          <mxGeometry x="40" y="40" width="120" height="60" as="geometry" />
        </mxCell>
        <mxCell id="q5uCnVJf6JsMDZms-lw6-20" value="&lt;span style=&quot;font-size: 12pt; line-height: 115%; font-family: Aptos, sans-serif;&quot; lang=&quot;PT-BR&quot;&gt;Notifications&lt;/span&gt;" style="rounded=0;whiteSpace=wrap;html=1;" vertex="1" parent="q5uCnVJf6JsMDZms-lw6-18">
          <mxGeometry x="40" y="130" width="120" height="60" as="geometry" />
        </mxCell>
        <mxCell id="q5uCnVJf6JsMDZms-lw6-21" value="&lt;span style=&quot;font-size: 12pt; line-height: 115%; font-family: Aptos, sans-serif;&quot; lang=&quot;PT-BR&quot;&gt;Payments&lt;br/&gt;Integration&lt;/span&gt;" style="rounded=0;whiteSpace=wrap;html=1;" vertex="1" parent="q5uCnVJf6JsMDZms-lw6-17">
          <mxGeometry x="40" y="240" width="120" height="60" as="geometry" />
        </mxCell>
      </root>
    </mxGraphModel>
  </diagram>
</mxfile>
